<mxfile host="app.diagrams.net" modified="2024-03-16T18:33:54.208Z" agent="Mozilla/5.0 (Windows NT 10.0; Win64; x64) AppleWebKit/537.36 (KHTML, like Gecko) Chrome/122.0.0.0 Safari/537.36" etag="7e6XzR_8eHdJp3sUu2rM" version="24.0.7" type="device">
  <diagram id="C5RBs43oDa-KdzZeNtuy" name="Page-1">
    <mxGraphModel dx="1434" dy="780" grid="1" gridSize="10" guides="1" tooltips="1" connect="1" arrows="1" fold="1" page="1" pageScale="1" pageWidth="827" pageHeight="1169" math="0" shadow="0">
      <root>
        <mxCell id="WIyWlLk6GJQsqaUBKTNV-0" />
        <mxCell id="WIyWlLk6GJQsqaUBKTNV-1" parent="WIyWlLk6GJQsqaUBKTNV-0" />
        <mxCell id="Gig1Gn8hlASIXGQ-HCuH-5" style="edgeStyle=orthogonalEdgeStyle;rounded=0;orthogonalLoop=1;jettySize=auto;html=1;" edge="1" parent="WIyWlLk6GJQsqaUBKTNV-1" source="WIyWlLk6GJQsqaUBKTNV-3" target="Gig1Gn8hlASIXGQ-HCuH-0">
          <mxGeometry relative="1" as="geometry" />
        </mxCell>
        <mxCell id="WIyWlLk6GJQsqaUBKTNV-3" value="OneFactorData[] d" style="rounded=1;whiteSpace=wrap;html=1;fontSize=12;glass=0;strokeWidth=1;shadow=0;" parent="WIyWlLk6GJQsqaUBKTNV-1" vertex="1">
          <mxGeometry x="160" y="90" width="120" height="40" as="geometry" />
        </mxCell>
        <mxCell id="Gig1Gn8hlASIXGQ-HCuH-2" style="edgeStyle=orthogonalEdgeStyle;rounded=0;orthogonalLoop=1;jettySize=auto;html=1;" edge="1" parent="WIyWlLk6GJQsqaUBKTNV-1" source="Gig1Gn8hlASIXGQ-HCuH-0" target="Gig1Gn8hlASIXGQ-HCuH-1">
          <mxGeometry relative="1" as="geometry" />
        </mxCell>
        <mxCell id="Gig1Gn8hlASIXGQ-HCuH-0" value="Dictionary&amp;lt;double, double&amp;gt; monolithRankedArray" style="rounded=0;whiteSpace=wrap;html=1;" vertex="1" parent="WIyWlLk6GJQsqaUBKTNV-1">
          <mxGeometry x="130" y="150" width="180" height="60" as="geometry" />
        </mxCell>
        <mxCell id="Gig1Gn8hlASIXGQ-HCuH-4" value="" style="edgeStyle=orthogonalEdgeStyle;rounded=0;orthogonalLoop=1;jettySize=auto;html=1;" edge="1" parent="WIyWlLk6GJQsqaUBKTNV-1" source="Gig1Gn8hlASIXGQ-HCuH-1" target="Gig1Gn8hlASIXGQ-HCuH-3">
          <mxGeometry relative="1" as="geometry" />
        </mxCell>
        <mxCell id="Gig1Gn8hlASIXGQ-HCuH-1" value="double[] monolithSortedArr = d" style="rounded=0;whiteSpace=wrap;html=1;" vertex="1" parent="WIyWlLk6GJQsqaUBKTNV-1">
          <mxGeometry x="135" y="240" width="170" height="60" as="geometry" />
        </mxCell>
        <mxCell id="Gig1Gn8hlASIXGQ-HCuH-7" style="edgeStyle=orthogonalEdgeStyle;rounded=0;orthogonalLoop=1;jettySize=auto;html=1;entryX=0.5;entryY=0;entryDx=0;entryDy=0;" edge="1" parent="WIyWlLk6GJQsqaUBKTNV-1" source="Gig1Gn8hlASIXGQ-HCuH-3" target="Gig1Gn8hlASIXGQ-HCuH-6">
          <mxGeometry relative="1" as="geometry" />
        </mxCell>
        <mxCell id="Gig1Gn8hlASIXGQ-HCuH-3" value="Array.Sort(monolithSortedArr)" style="whiteSpace=wrap;html=1;rounded=0;" vertex="1" parent="WIyWlLk6GJQsqaUBKTNV-1">
          <mxGeometry x="130" y="330" width="180" height="60" as="geometry" />
        </mxCell>
        <mxCell id="Gig1Gn8hlASIXGQ-HCuH-21" style="edgeStyle=orthogonalEdgeStyle;rounded=0;orthogonalLoop=1;jettySize=auto;html=1;" edge="1" parent="WIyWlLk6GJQsqaUBKTNV-1" source="Gig1Gn8hlASIXGQ-HCuH-6" target="Gig1Gn8hlASIXGQ-HCuH-8">
          <mxGeometry relative="1" as="geometry" />
        </mxCell>
        <mxCell id="Gig1Gn8hlASIXGQ-HCuH-6" value="&lt;div&gt;int rnk = 1&lt;/div&gt;&lt;div&gt;double tmp = rnk&lt;/div&gt;&lt;div&gt;double k = 1&lt;/div&gt;&lt;div&gt;i = 0&lt;/div&gt;" style="rounded=0;whiteSpace=wrap;html=1;" vertex="1" parent="WIyWlLk6GJQsqaUBKTNV-1">
          <mxGeometry x="160" y="420" width="120" height="60" as="geometry" />
        </mxCell>
        <mxCell id="Gig1Gn8hlASIXGQ-HCuH-11" style="edgeStyle=orthogonalEdgeStyle;rounded=0;orthogonalLoop=1;jettySize=auto;html=1;" edge="1" parent="WIyWlLk6GJQsqaUBKTNV-1" source="Gig1Gn8hlASIXGQ-HCuH-8" target="Gig1Gn8hlASIXGQ-HCuH-10">
          <mxGeometry relative="1" as="geometry" />
        </mxCell>
        <mxCell id="Gig1Gn8hlASIXGQ-HCuH-24" style="edgeStyle=orthogonalEdgeStyle;rounded=0;orthogonalLoop=1;jettySize=auto;html=1;" edge="1" parent="WIyWlLk6GJQsqaUBKTNV-1" source="Gig1Gn8hlASIXGQ-HCuH-8" target="Gig1Gn8hlASIXGQ-HCuH-23">
          <mxGeometry relative="1" as="geometry">
            <Array as="points">
              <mxPoint x="640" y="545" />
              <mxPoint x="640" y="960" />
              <mxPoint x="220" y="960" />
            </Array>
          </mxGeometry>
        </mxCell>
        <mxCell id="Gig1Gn8hlASIXGQ-HCuH-8" value="i &amp;lt; monolithSortedArr.Length" style="rhombus;whiteSpace=wrap;html=1;" vertex="1" parent="WIyWlLk6GJQsqaUBKTNV-1">
          <mxGeometry x="125" y="505" width="190" height="80" as="geometry" />
        </mxCell>
        <mxCell id="Gig1Gn8hlASIXGQ-HCuH-22" style="edgeStyle=orthogonalEdgeStyle;rounded=0;orthogonalLoop=1;jettySize=auto;html=1;entryX=0;entryY=0.5;entryDx=0;entryDy=0;" edge="1" parent="WIyWlLk6GJQsqaUBKTNV-1" source="Gig1Gn8hlASIXGQ-HCuH-9" target="Gig1Gn8hlASIXGQ-HCuH-8">
          <mxGeometry relative="1" as="geometry">
            <Array as="points">
              <mxPoint x="105" y="930" />
              <mxPoint x="105" y="545" />
            </Array>
          </mxGeometry>
        </mxCell>
        <mxCell id="Gig1Gn8hlASIXGQ-HCuH-9" value="i++" style="rounded=0;whiteSpace=wrap;html=1;" vertex="1" parent="WIyWlLk6GJQsqaUBKTNV-1">
          <mxGeometry x="185" y="910" width="70" height="40" as="geometry" />
        </mxCell>
        <mxCell id="Gig1Gn8hlASIXGQ-HCuH-13" style="edgeStyle=orthogonalEdgeStyle;rounded=0;orthogonalLoop=1;jettySize=auto;html=1;" edge="1" parent="WIyWlLk6GJQsqaUBKTNV-1" source="Gig1Gn8hlASIXGQ-HCuH-10" target="Gig1Gn8hlASIXGQ-HCuH-12">
          <mxGeometry relative="1" as="geometry" />
        </mxCell>
        <mxCell id="Gig1Gn8hlASIXGQ-HCuH-15" style="edgeStyle=orthogonalEdgeStyle;rounded=0;orthogonalLoop=1;jettySize=auto;html=1;" edge="1" parent="WIyWlLk6GJQsqaUBKTNV-1" source="Gig1Gn8hlASIXGQ-HCuH-10" target="Gig1Gn8hlASIXGQ-HCuH-14">
          <mxGeometry relative="1" as="geometry">
            <Array as="points">
              <mxPoint x="465" y="695" />
            </Array>
          </mxGeometry>
        </mxCell>
        <mxCell id="Gig1Gn8hlASIXGQ-HCuH-10" value="i != monolithSortedArr.Length - 1 &amp;amp;&amp;amp; monolithSortedArr[i] == monolithSortedArr[i + 1]" style="rhombus;whiteSpace=wrap;html=1;" vertex="1" parent="WIyWlLk6GJQsqaUBKTNV-1">
          <mxGeometry x="127.5" y="630" width="185" height="130" as="geometry" />
        </mxCell>
        <mxCell id="Gig1Gn8hlASIXGQ-HCuH-16" style="edgeStyle=orthogonalEdgeStyle;rounded=0;orthogonalLoop=1;jettySize=auto;html=1;entryX=0.5;entryY=0;entryDx=0;entryDy=0;" edge="1" parent="WIyWlLk6GJQsqaUBKTNV-1" source="Gig1Gn8hlASIXGQ-HCuH-12" target="Gig1Gn8hlASIXGQ-HCuH-9">
          <mxGeometry relative="1" as="geometry" />
        </mxCell>
        <mxCell id="Gig1Gn8hlASIXGQ-HCuH-12" value="rnk++&lt;div&gt;tmp +=rnk&lt;/div&gt;&lt;div&gt;k++&lt;/div&gt;" style="rounded=0;whiteSpace=wrap;html=1;" vertex="1" parent="WIyWlLk6GJQsqaUBKTNV-1">
          <mxGeometry x="165" y="800" width="110" height="50" as="geometry" />
        </mxCell>
        <mxCell id="Gig1Gn8hlASIXGQ-HCuH-20" style="edgeStyle=orthogonalEdgeStyle;rounded=0;orthogonalLoop=1;jettySize=auto;html=1;entryX=0.5;entryY=0;entryDx=0;entryDy=0;" edge="1" parent="WIyWlLk6GJQsqaUBKTNV-1" source="Gig1Gn8hlASIXGQ-HCuH-14" target="Gig1Gn8hlASIXGQ-HCuH-9">
          <mxGeometry relative="1" as="geometry">
            <Array as="points">
              <mxPoint x="465" y="870" />
              <mxPoint x="220" y="870" />
            </Array>
          </mxGeometry>
        </mxCell>
        <mxCell id="Gig1Gn8hlASIXGQ-HCuH-14" value="monolithRankedArray.Add(monolithSortedArr[i], tmp / k)&lt;div&gt;k = 1&lt;/div&gt;&lt;div&gt;rnk++&lt;/div&gt;&lt;div&gt;tmp = rnk&lt;/div&gt;" style="rounded=0;whiteSpace=wrap;html=1;" vertex="1" parent="WIyWlLk6GJQsqaUBKTNV-1">
          <mxGeometry x="310" y="795" width="310" height="60" as="geometry" />
        </mxCell>
        <mxCell id="Gig1Gn8hlASIXGQ-HCuH-26" style="edgeStyle=orthogonalEdgeStyle;rounded=0;orthogonalLoop=1;jettySize=auto;html=1;" edge="1" parent="WIyWlLk6GJQsqaUBKTNV-1" source="Gig1Gn8hlASIXGQ-HCuH-23" target="Gig1Gn8hlASIXGQ-HCuH-25">
          <mxGeometry relative="1" as="geometry" />
        </mxCell>
        <mxCell id="Gig1Gn8hlASIXGQ-HCuH-23" value="&lt;div&gt;OneFactorData[] rankedData = new OneFactorData[d.Length];&lt;br&gt;&lt;/div&gt;i = 0" style="rounded=0;whiteSpace=wrap;html=1;" vertex="1" parent="WIyWlLk6GJQsqaUBKTNV-1">
          <mxGeometry x="132.5" y="1000" width="175" height="50" as="geometry" />
        </mxCell>
        <mxCell id="Gig1Gn8hlASIXGQ-HCuH-29" style="edgeStyle=orthogonalEdgeStyle;rounded=0;orthogonalLoop=1;jettySize=auto;html=1;" edge="1" parent="WIyWlLk6GJQsqaUBKTNV-1" source="Gig1Gn8hlASIXGQ-HCuH-25" target="Gig1Gn8hlASIXGQ-HCuH-28">
          <mxGeometry relative="1" as="geometry" />
        </mxCell>
        <mxCell id="Gig1Gn8hlASIXGQ-HCuH-46" style="edgeStyle=orthogonalEdgeStyle;rounded=0;orthogonalLoop=1;jettySize=auto;html=1;" edge="1" parent="WIyWlLk6GJQsqaUBKTNV-1" source="Gig1Gn8hlASIXGQ-HCuH-25" target="Gig1Gn8hlASIXGQ-HCuH-45">
          <mxGeometry relative="1" as="geometry">
            <Array as="points">
              <mxPoint x="370" y="1110" />
              <mxPoint x="370" y="1710" />
              <mxPoint x="213" y="1710" />
            </Array>
          </mxGeometry>
        </mxCell>
        <mxCell id="Gig1Gn8hlASIXGQ-HCuH-25" value="i &amp;lt; d.Length" style="rhombus;whiteSpace=wrap;html=1;" vertex="1" parent="WIyWlLk6GJQsqaUBKTNV-1">
          <mxGeometry x="152.5" y="1080" width="127.5" height="60" as="geometry" />
        </mxCell>
        <mxCell id="Gig1Gn8hlASIXGQ-HCuH-44" style="edgeStyle=orthogonalEdgeStyle;rounded=0;orthogonalLoop=1;jettySize=auto;html=1;entryX=0;entryY=0.5;entryDx=0;entryDy=0;" edge="1" parent="WIyWlLk6GJQsqaUBKTNV-1" source="Gig1Gn8hlASIXGQ-HCuH-27" target="Gig1Gn8hlASIXGQ-HCuH-25">
          <mxGeometry relative="1" as="geometry">
            <Array as="points">
              <mxPoint x="90" y="1680" />
              <mxPoint x="90" y="1110" />
            </Array>
          </mxGeometry>
        </mxCell>
        <mxCell id="Gig1Gn8hlASIXGQ-HCuH-27" value="i++" style="rounded=0;whiteSpace=wrap;html=1;" vertex="1" parent="WIyWlLk6GJQsqaUBKTNV-1">
          <mxGeometry x="185" y="1660" width="70" height="40" as="geometry" />
        </mxCell>
        <mxCell id="Gig1Gn8hlASIXGQ-HCuH-32" style="edgeStyle=orthogonalEdgeStyle;rounded=0;orthogonalLoop=1;jettySize=auto;html=1;entryX=0.5;entryY=0;entryDx=0;entryDy=0;" edge="1" parent="WIyWlLk6GJQsqaUBKTNV-1" source="Gig1Gn8hlASIXGQ-HCuH-28" target="Gig1Gn8hlASIXGQ-HCuH-31">
          <mxGeometry relative="1" as="geometry" />
        </mxCell>
        <mxCell id="Gig1Gn8hlASIXGQ-HCuH-28" value="double[] rankedArr = new double[d[i].Length]&lt;div&gt;j = 0&lt;/div&gt;" style="rounded=0;whiteSpace=wrap;html=1;" vertex="1" parent="WIyWlLk6GJQsqaUBKTNV-1">
          <mxGeometry x="156" y="1180" width="120" height="60" as="geometry" />
        </mxCell>
        <mxCell id="Gig1Gn8hlASIXGQ-HCuH-36" style="edgeStyle=orthogonalEdgeStyle;rounded=0;orthogonalLoop=1;jettySize=auto;html=1;entryX=0.5;entryY=0;entryDx=0;entryDy=0;" edge="1" parent="WIyWlLk6GJQsqaUBKTNV-1" source="Gig1Gn8hlASIXGQ-HCuH-31" target="Gig1Gn8hlASIXGQ-HCuH-34">
          <mxGeometry relative="1" as="geometry" />
        </mxCell>
        <mxCell id="Gig1Gn8hlASIXGQ-HCuH-42" style="edgeStyle=orthogonalEdgeStyle;rounded=0;orthogonalLoop=1;jettySize=auto;html=1;" edge="1" parent="WIyWlLk6GJQsqaUBKTNV-1" source="Gig1Gn8hlASIXGQ-HCuH-31" target="Gig1Gn8hlASIXGQ-HCuH-41">
          <mxGeometry relative="1" as="geometry">
            <Array as="points">
              <mxPoint x="330" y="1320" />
              <mxPoint x="330" y="1540" />
              <mxPoint x="220" y="1540" />
            </Array>
          </mxGeometry>
        </mxCell>
        <mxCell id="Gig1Gn8hlASIXGQ-HCuH-31" value="j &amp;lt; d[i].Length" style="rhombus;whiteSpace=wrap;html=1;" vertex="1" parent="WIyWlLk6GJQsqaUBKTNV-1">
          <mxGeometry x="152.25" y="1290" width="127.5" height="60" as="geometry" />
        </mxCell>
        <mxCell id="Gig1Gn8hlASIXGQ-HCuH-38" style="edgeStyle=orthogonalEdgeStyle;rounded=0;orthogonalLoop=1;jettySize=auto;html=1;entryX=0;entryY=0.5;entryDx=0;entryDy=0;" edge="1" parent="WIyWlLk6GJQsqaUBKTNV-1" source="Gig1Gn8hlASIXGQ-HCuH-33" target="Gig1Gn8hlASIXGQ-HCuH-31">
          <mxGeometry relative="1" as="geometry">
            <Array as="points">
              <mxPoint x="110" y="1500" />
              <mxPoint x="110" y="1320" />
            </Array>
          </mxGeometry>
        </mxCell>
        <mxCell id="Gig1Gn8hlASIXGQ-HCuH-33" value="j++" style="rounded=0;whiteSpace=wrap;html=1;" vertex="1" parent="WIyWlLk6GJQsqaUBKTNV-1">
          <mxGeometry x="180.99" y="1480" width="70" height="40" as="geometry" />
        </mxCell>
        <mxCell id="Gig1Gn8hlASIXGQ-HCuH-37" style="edgeStyle=orthogonalEdgeStyle;rounded=0;orthogonalLoop=1;jettySize=auto;html=1;" edge="1" parent="WIyWlLk6GJQsqaUBKTNV-1" source="Gig1Gn8hlASIXGQ-HCuH-34" target="Gig1Gn8hlASIXGQ-HCuH-33">
          <mxGeometry relative="1" as="geometry" />
        </mxCell>
        <mxCell id="Gig1Gn8hlASIXGQ-HCuH-34" value="rankedArr[j] = monolithRankedArray[d[i][j]" style="rounded=0;whiteSpace=wrap;html=1;" vertex="1" parent="WIyWlLk6GJQsqaUBKTNV-1">
          <mxGeometry x="139.12" y="1390" width="153.75" height="60" as="geometry" />
        </mxCell>
        <mxCell id="Gig1Gn8hlASIXGQ-HCuH-43" style="edgeStyle=orthogonalEdgeStyle;rounded=0;orthogonalLoop=1;jettySize=auto;html=1;" edge="1" parent="WIyWlLk6GJQsqaUBKTNV-1" source="Gig1Gn8hlASIXGQ-HCuH-41" target="Gig1Gn8hlASIXGQ-HCuH-27">
          <mxGeometry relative="1" as="geometry" />
        </mxCell>
        <mxCell id="Gig1Gn8hlASIXGQ-HCuH-41" value="&lt;div&gt;&amp;nbsp;OneFactorData rankedGroup = new OneFactorData(rankedArr)&lt;/div&gt;&lt;div&gt;&amp;nbsp;rankedData[i] = rankedGroup;&lt;/div&gt;" style="rounded=0;whiteSpace=wrap;html=1;" vertex="1" parent="WIyWlLk6GJQsqaUBKTNV-1">
          <mxGeometry x="126.5" y="1560" width="187" height="70" as="geometry" />
        </mxCell>
        <mxCell id="Gig1Gn8hlASIXGQ-HCuH-45" value="rankedData" style="rounded=1;whiteSpace=wrap;html=1;fontSize=12;glass=0;strokeWidth=1;shadow=0;" vertex="1" parent="WIyWlLk6GJQsqaUBKTNV-1">
          <mxGeometry x="156.25" y="1760" width="120" height="40" as="geometry" />
        </mxCell>
      </root>
    </mxGraphModel>
  </diagram>
</mxfile>
